<?xml version="1.0" encoding="UTF-8" standalone="no"?><svg xmlns="http://www.w3.org/2000/svg" xmlns:xlink="http://www.w3.org/1999/xlink" contentStyleType="text/css" height="1083px" preserveAspectRatio="none" style="width:1415px;height:1083px;background:#FFFFFF;" version="1.1" viewBox="0 0 1415 1083" width="1415px" zoomAndPan="magnify"><defs/><g><!--MD5=[d8e4f907c042db7f086cecd1067b64c8]
cluster GenericRepository--><g id="cluster_GenericRepository"><path d="M8.5,6 L141.5,6 A3.75,3.75 0 0 1 144,8.5 L151,29.6094 L1405.5,29.6094 A2.5,2.5 0 0 1 1408,32.1094 L1408,1073.5 A2.5,2.5 0 0 1 1405.5,1076 L8.5,1076 A2.5,2.5 0 0 1 6,1073.5 L6,8.5 A2.5,2.5 0 0 1 8.5,6 " fill="none" style="stroke:#000000;stroke-width:1.5;"/><line style="stroke:#000000;stroke-width:1.5;" x1="6" x2="151" y1="29.6094" y2="29.6094"/><text fill="#000000" font-family="sans-serif" font-size="14" font-weight="bold" lengthAdjust="spacing" textLength="132" x="10" y="22.5332">GenericRepository</text></g><!--MD5=[b062dfe91bbd692ac21e701bd20ff870]
cluster Enums--><g id="cluster_Enums"><path d="M884.5,148 L932.5,148 A3.75,3.75 0 0 1 935,150.5 L942,171.6094 L1060.5,171.6094 A2.5,2.5 0 0 1 1063,174.1094 L1063,296.5 A2.5,2.5 0 0 1 1060.5,299 L884.5,299 A2.5,2.5 0 0 1 882,296.5 L882,150.5 A2.5,2.5 0 0 1 884.5,148 " fill="none" style="stroke:#000000;stroke-width:1.5;"/><line style="stroke:#000000;stroke-width:1.5;" x1="882" x2="942" y1="171.6094" y2="171.6094"/><text fill="#000000" font-family="sans-serif" font-size="14" font-weight="bold" lengthAdjust="spacing" textLength="47" x="886" y="164.5332">Enums</text></g><!--MD5=[b50d64f80f0e9407238c6d53d0d4c799]
cluster Options--><g id="cluster_Options"><path d="M884.5,538 L940.5,538 A3.75,3.75 0 0 1 943,540.5 L950,561.6094 L1373.5,561.6094 A2.5,2.5 0 0 1 1376,564.1094 L1376,1041.5 A2.5,2.5 0 0 1 1373.5,1044 L884.5,1044 A2.5,2.5 0 0 1 882,1041.5 L882,540.5 A2.5,2.5 0 0 1 884.5,538 " fill="none" style="stroke:#000000;stroke-width:1.5;"/><line style="stroke:#000000;stroke-width:1.5;" x1="882" x2="950" y1="561.6094" y2="561.6094"/><text fill="#000000" font-family="sans-serif" font-size="14" font-weight="bold" lengthAdjust="spacing" textLength="55" x="886" y="554.5332">Options</text></g><!--MD5=[0b89f7d34c26fffbb81ea7301eb9df33]
cluster Interfaces--><g id="cluster_Interfaces"><path d="M32.5,50 L104.5,50 A3.75,3.75 0 0 1 107,52.5 L114,73.6094 L847.5,73.6094 A2.5,2.5 0 0 1 850,76.1094 L850,872.5 A2.5,2.5 0 0 1 847.5,875 L32.5,875 A2.5,2.5 0 0 1 30,872.5 L30,52.5 A2.5,2.5 0 0 1 32.5,50 " fill="none" style="stroke:#000000;stroke-width:1.5;"/><line style="stroke:#000000;stroke-width:1.5;" x1="30" x2="114" y1="73.6094" y2="73.6094"/><text fill="#000000" font-family="sans-serif" font-size="14" font-weight="bold" lengthAdjust="spacing" textLength="71" x="34" y="66.5332">Interfaces</text></g><!--MD5=[1122f7d4566205e8d5c470a572b59f24]
class SortingOrder--><g id="elem_SortingOrder"><rect codeLine="4" fill="#F1F1F1" height="83.2188" id="SortingOrder" rx="2.5" ry="2.5" style="stroke:#181818;stroke-width:0.5;" width="114" x="925" y="192"/><ellipse cx="940" cy="208" fill="#EB937F" rx="11" ry="11" style="stroke:#181818;stroke-width:1.0;"/><path d="M938.8594,208.7969 L938.8594,211.2969 L943.1875,211.2969 L943.1875,210.375 Q943.1875,209.7656 943.4219,209.5 Q943.6719,209.2344 944.0469,209.2344 Q944.4219,209.2344 944.6563,209.5 Q944.8906,209.7656 944.8906,210.375 L944.8906,213 L936.8906,213 Q936.2656,213 936,212.7656 Q935.75,212.5313 935.75,212.1406 Q935.75,211.7656 936.0156,211.5313 Q936.2813,211.2969 936.8906,211.2969 L937.1563,211.2969 L937.1563,204.6406 L936.8906,204.6406 Q936.2656,204.6406 936,204.4063 Q935.75,204.1719 935.75,203.7813 Q935.75,203.4063 936,203.1719 Q936.2656,202.9375 936.8906,202.9375 L944.5156,202.9375 L944.5156,205.5313 Q944.5156,206.1406 944.2813,206.4063 Q944.0625,206.6563 943.6719,206.6563 Q943.2969,206.6563 943.0625,206.4063 Q942.8281,206.1406 942.8281,205.5313 L942.8281,204.6406 L938.8594,204.6406 L938.8594,207.0938 L940.3438,207.0938 Q940.3438,206.4375 940.4688,206.25 Q940.7344,205.8438 941.2031,205.8438 Q941.5781,205.8438 941.8125,206.1094 Q942.0469,206.3594 942.0469,206.9688 L942.0469,208.9375 Q942.0469,209.4844 941.9219,209.6719 Q941.6563,210.0625 941.2031,210.0625 Q940.7344,210.0625 940.4688,209.6563 Q940.3438,209.4688 940.3438,208.7969 L938.8594,208.7969 Z " fill="#000000"/><text fill="#000000" font-family="sans-serif" font-size="14" lengthAdjust="spacing" textLength="82" x="954" y="213.7285">SortingOrder</text><line style="stroke:#181818;stroke-width:0.5;" x1="926" x2="1038" y1="224" y2="224"/><text fill="#000000" font-family="sans-serif" font-size="14" lengthAdjust="spacing" textLength="23" x="931" y="242.5332">Asc</text><text fill="#000000" font-family="sans-serif" font-size="14" lengthAdjust="spacing" textLength="32" x="931" y="260.1426">Desc</text><line style="stroke:#181818;stroke-width:0.5;" x1="926" x2="1038" y1="267.2188" y2="267.2188"/></g><!--MD5=[d56dea4b6cb43629aad8a95fac881d18]
class DataModelOptions--><g id="elem_DataModelOptions"><rect codeLine="11" fill="#F1F1F1" height="136.0469" id="DataModelOptions" rx="2.5" ry="2.5" style="stroke:#181818;stroke-width:0.5;" width="412" x="927" y="582"/><ellipse cx="1049.75" cy="598" fill="#ADD1B2" rx="11" ry="11" style="stroke:#181818;stroke-width:1.0;"/><path d="M1052.5156,593.875 Q1052.6719,593.6563 1052.8594,593.5469 Q1053.0469,593.4375 1053.2656,593.4375 Q1053.6406,593.4375 1053.875,593.7031 Q1054.1094,593.9531 1054.1094,594.5625 L1054.1094,596.0156 Q1054.1094,596.625 1053.875,596.8906 Q1053.6406,597.1563 1053.2656,597.1563 Q1052.9219,597.1563 1052.7188,596.9531 Q1052.5156,596.7656 1052.4063,596.25 Q1052.3594,595.8906 1052.1719,595.7031 Q1051.8438,595.3281 1051.2344,595.1094 Q1050.625,594.8906 1050,594.8906 Q1049.2344,594.8906 1048.5938,595.2188 Q1047.9688,595.5469 1047.4688,596.2969 Q1046.9844,597.0469 1046.9844,598.0781 L1046.9844,599.1719 Q1046.9844,600.4063 1047.875,601.2344 Q1048.7656,602.0469 1050.3594,602.0469 Q1051.2969,602.0469 1051.9531,601.7969 Q1052.3438,601.6406 1052.7656,601.2031 Q1053.0313,600.9375 1053.1719,600.8594 Q1053.3281,600.7813 1053.5313,600.7813 Q1053.8594,600.7813 1054.1094,601.0469 Q1054.375,601.2969 1054.375,601.6406 Q1054.375,601.9844 1054.0313,602.3906 Q1053.5313,602.9688 1052.7344,603.2969 Q1051.6563,603.75 1050.3594,603.75 Q1048.8438,603.75 1047.6406,603.125 Q1046.6563,602.625 1045.9688,601.5625 Q1045.2813,600.4844 1045.2813,599.2031 L1045.2813,598.0469 Q1045.2813,596.7188 1045.8906,595.5781 Q1046.5156,594.4219 1047.6094,593.8125 Q1048.7031,593.1875 1049.9375,593.1875 Q1050.6719,593.1875 1051.3125,593.3594 Q1051.9688,593.5156 1052.5156,593.875 Z " fill="#000000"/><text fill="#000000" font-family="sans-serif" font-size="14" lengthAdjust="spacing" textLength="117" x="1070.25" y="603.7285">DataModelOptions</text><rect fill="#FFFFFF" height="17.0938" style="stroke:#181818;stroke-width:1.0;stroke-dasharray:2.0,2.0;" width="39" x="1303" y="579"/><text fill="#000000" font-family="sans-serif" font-size="12" font-style="italic" lengthAdjust="spacing" textLength="37" x="1304" y="592.457">TEntity</text><line style="stroke:#181818;stroke-width:0.5;" x1="928" x2="1338" y1="614" y2="614"/><ellipse cx="938" cy="628.3047" fill="none" rx="3" ry="3" style="stroke:#038048;stroke-width:1.0;"/><text fill="#000000" font-family="sans-serif" font-size="14" lengthAdjust="spacing" textLength="386" x="947" y="632.5332">EntitySearchClause : Expression&lt;Func&lt;TEntity, bool&gt;&gt; = null</text><text fill="#000000" font-family="sans-serif" font-size="14" lengthAdjust="spacing" textLength="4" x="947" y="650.1426"> </text><ellipse cx="938" cy="663.5234" fill="none" rx="3" ry="3" style="stroke:#038048;stroke-width:1.0;"/><text fill="#000000" font-family="sans-serif" font-size="14" lengthAdjust="spacing" textLength="197" x="947" y="667.752">SortingFieldName : string = null</text><text fill="#000000" font-family="sans-serif" font-size="14" lengthAdjust="spacing" textLength="4" x="947" y="685.3613"> </text><ellipse cx="938" cy="698.7422" fill="none" rx="3" ry="3" style="stroke:#038048;stroke-width:1.0;"/><text fill="#000000" font-family="sans-serif" font-size="14" lengthAdjust="spacing" textLength="176" x="947" y="702.9707">SortingOrder : SortingOrder</text><line style="stroke:#181818;stroke-width:0.5;" x1="928" x2="1338" y1="710.0469" y2="710.0469"/></g><!--MD5=[700e828ab69215d712bcfde41b17b535]
class ComplexDataModelOptions--><g id="elem_ComplexDataModelOptions"><rect codeLine="19" fill="#F1F1F1" height="100.8281" id="ComplexDataModelOptions" rx="2.5" ry="2.5" style="stroke:#181818;stroke-width:0.5;" width="438" x="914" y="919"/><ellipse cx="985.25" cy="935" fill="#ADD1B2" rx="11" ry="11" style="stroke:#181818;stroke-width:1.0;"/><path d="M988.0156,930.875 Q988.1719,930.6563 988.3594,930.5469 Q988.5469,930.4375 988.7656,930.4375 Q989.1406,930.4375 989.375,930.7031 Q989.6094,930.9531 989.6094,931.5625 L989.6094,933.0156 Q989.6094,933.625 989.375,933.8906 Q989.1406,934.1563 988.7656,934.1563 Q988.4219,934.1563 988.2188,933.9531 Q988.0156,933.7656 987.9063,933.25 Q987.8594,932.8906 987.6719,932.7031 Q987.3438,932.3281 986.7344,932.1094 Q986.125,931.8906 985.5,931.8906 Q984.7344,931.8906 984.0938,932.2188 Q983.4688,932.5469 982.9688,933.2969 Q982.4844,934.0469 982.4844,935.0781 L982.4844,936.1719 Q982.4844,937.4063 983.375,938.2344 Q984.2656,939.0469 985.8594,939.0469 Q986.7969,939.0469 987.4531,938.7969 Q987.8438,938.6406 988.2656,938.2031 Q988.5313,937.9375 988.6719,937.8594 Q988.8281,937.7813 989.0313,937.7813 Q989.3594,937.7813 989.6094,938.0469 Q989.875,938.2969 989.875,938.6406 Q989.875,938.9844 989.5313,939.3906 Q989.0313,939.9688 988.2344,940.2969 Q987.1563,940.75 985.8594,940.75 Q984.3438,940.75 983.1406,940.125 Q982.1563,939.625 981.4688,938.5625 Q980.7813,937.4844 980.7813,936.2031 L980.7813,935.0469 Q980.7813,933.7188 981.3906,932.5781 Q982.0156,931.4219 983.1094,930.8125 Q984.2031,930.1875 985.4375,930.1875 Q986.1719,930.1875 986.8125,930.3594 Q987.4688,930.5156 988.0156,930.875 Z " fill="#000000"/><text fill="#000000" font-family="sans-serif" font-size="14" lengthAdjust="spacing" textLength="171" x="1005.75" y="940.7285">ComplexDataModelOptions</text><rect fill="#FFFFFF" height="17.0938" style="stroke:#181818;stroke-width:1.0;stroke-dasharray:2.0,2.0;" width="114" x="1241" y="916"/><text fill="#000000" font-family="sans-serif" font-size="12" font-style="italic" lengthAdjust="spacing" textLength="112" x="1242" y="929.457">TEntity, TDestination</text><line style="stroke:#181818;stroke-width:0.5;" x1="915" x2="1351" y1="951" y2="951"/><ellipse cx="925" cy="965.3047" fill="none" rx="3" ry="3" style="stroke:#038048;stroke-width:1.0;"/><text fill="#000000" font-family="sans-serif" font-size="14" lengthAdjust="spacing" textLength="410" x="934" y="969.5332">[Required] Projection : Expression&lt;Func&lt;TEntity, TDestination&gt;&gt;</text><text fill="#000000" font-family="sans-serif" font-size="14" lengthAdjust="spacing" textLength="4" x="934" y="987.1426"> </text><ellipse cx="925" cy="1000.5234" fill="none" rx="3" ry="3" style="stroke:#038048;stroke-width:1.0;"/><text fill="#000000" font-family="sans-serif" font-size="14" lengthAdjust="spacing" textLength="412" x="934" y="1004.752">ProjectionSearchClause : Expression&lt;Func&lt;TDestination, bool&gt;&gt;</text><line style="stroke:#181818;stroke-width:0.5;" x1="915" x2="1351" y1="1011.8281" y2="1011.8281"/></g><!--MD5=[eff597fc0328db3177c7ae803ce70dea]
class IGenericAsyncRepository--><g id="elem_IGenericAsyncRepository"><rect codeLine="29" fill="#F1F1F1" height="417.7969" id="IGenericAsyncRepository" rx="2.5" ry="2.5" style="stroke:#181818;stroke-width:0.5;" width="638" x="121" y="441"/><ellipse cx="335.25" cy="457" fill="#B4A7E5" rx="11" ry="11" style="stroke:#181818;stroke-width:1.0;"/><path d="M336.2031,453.6406 L336.2031,460.2969 L337.9219,460.2969 Q338.5313,460.2969 338.7969,460.5313 Q339.0625,460.7656 339.0625,461.1563 Q339.0625,461.5313 338.7969,461.7656 Q338.5313,462 337.9219,462 L332.7813,462 Q332.1719,462 331.9063,461.7656 Q331.6406,461.5313 331.6406,461.1406 Q331.6406,460.7656 331.9063,460.5313 Q332.1719,460.2969 332.7813,460.2969 L334.5,460.2969 L334.5,453.6406 L332.7813,453.6406 Q332.1719,453.6406 331.9063,453.4063 Q331.6406,453.1719 331.6406,452.7813 Q331.6406,452.4063 331.9063,452.1719 Q332.1719,451.9375 332.7813,451.9375 L337.9219,451.9375 Q338.5313,451.9375 338.7969,452.1719 Q339.0625,452.4063 339.0625,452.7813 Q339.0625,453.1719 338.7969,453.4063 Q338.5313,453.6406 337.9219,453.6406 L336.2031,453.6406 Z " fill="#000000"/><text fill="#000000" font-family="sans-serif" font-size="14" font-style="italic" lengthAdjust="spacing" textLength="160" x="355.75" y="462.7285">IGenericAsyncRepository</text><rect fill="#FFFFFF" height="17.0938" style="stroke:#181818;stroke-width:1.0;stroke-dasharray:2.0,2.0;" width="39" x="723" y="438"/><text fill="#000000" font-family="sans-serif" font-size="12" font-style="italic" lengthAdjust="spacing" textLength="37" x="724" y="451.457">TEntity</text><line style="stroke:#181818;stroke-width:0.5;" x1="122" x2="758" y1="473" y2="473"/><text fill="#000000" font-family="sans-serif" font-size="14" lengthAdjust="spacing" textLength="164" x="127" y="491.5332">[Required] entity : TEntity,</text><line style="stroke:#181818;stroke-width:0.5;" x1="122" x2="758" y1="498.6094" y2="498.6094"/><ellipse cx="132" cy="512.9141" fill="#84BE84" rx="3" ry="3" style="stroke:#038048;stroke-width:1.0;"/><text fill="#000000" font-family="sans-serif" font-size="14" lengthAdjust="spacing" textLength="374" x="141" y="517.1426">ListAsync([Required] options : DataModelOptions&lt;TEntity&gt;,</text><text fill="#000000" font-family="sans-serif" font-size="14" lengthAdjust="spacing" textLength="507" x="141" y="534.752">cancellationToken : CancellationToken = default) : Task&lt;IEnumerable&lt;TEntity&gt;&gt;</text><text fill="#000000" font-family="sans-serif" font-size="14" lengthAdjust="spacing" textLength="4" x="141" y="552.3613"> </text><ellipse cx="132" cy="565.7422" fill="#84BE84" rx="3" ry="3" style="stroke:#038048;stroke-width:1.0;"/><text fill="#000000" font-family="sans-serif" font-size="14" lengthAdjust="spacing" textLength="612" x="141" y="569.9707">ListAsync&lt;TDestination&gt;([Required] options : ComplexDataModelOptions&lt;TEntity, TDestination&gt;,</text><text fill="#000000" font-family="sans-serif" font-size="14" lengthAdjust="spacing" textLength="543" x="141" y="587.5801">cancellationToken : CancellationToken = default) : Task&lt;IEnumerable&lt;TDestination&gt;&gt;</text><text fill="#000000" font-family="sans-serif" font-size="14" lengthAdjust="spacing" textLength="4" x="141" y="605.1895"> </text><ellipse cx="132" cy="618.5703" fill="#84BE84" rx="3" ry="3" style="stroke:#038048;stroke-width:1.0;"/><text fill="#000000" font-family="sans-serif" font-size="14" lengthAdjust="spacing" textLength="375" x="141" y="622.7988">GetAsync([Required] options : DataModelOptions&lt;TEntity&gt;,</text><text fill="#000000" font-family="sans-serif" font-size="14" lengthAdjust="spacing" textLength="412" x="141" y="640.4082">cancellationToken : CancellationToken = default) : Task&lt;TEntity&gt;</text><text fill="#000000" font-family="sans-serif" font-size="14" lengthAdjust="spacing" textLength="4" x="141" y="658.0176"> </text><ellipse cx="132" cy="671.3984" fill="#84BE84" rx="3" ry="3" style="stroke:#038048;stroke-width:1.0;"/><text fill="#000000" font-family="sans-serif" font-size="14" lengthAdjust="spacing" textLength="605" x="141" y="675.627">GetAsync&lt;TDestination&gt;([Required] ComplexDataModelOptions&lt;TEntity, TDestination&gt; options,</text><text fill="#000000" font-family="sans-serif" font-size="14" lengthAdjust="spacing" textLength="448" x="141" y="693.2363">cancellationToken : CancellationToken = default) : Task&lt;TDestination&gt;</text><text fill="#000000" font-family="sans-serif" font-size="14" lengthAdjust="spacing" textLength="4" x="141" y="710.8457"> </text><ellipse cx="132" cy="724.2266" fill="#84BE84" rx="3" ry="3" style="stroke:#038048;stroke-width:1.0;"/><text fill="#000000" font-family="sans-serif" font-size="14" lengthAdjust="spacing" textLength="250" x="141" y="728.4551">CreateAsync([Required] entity : TEntity,</text><text fill="#000000" font-family="sans-serif" font-size="14" lengthAdjust="spacing" textLength="352" x="141" y="746.0645">cancellationToken : CancellationToken = default) : Task</text><text fill="#000000" font-family="sans-serif" font-size="14" lengthAdjust="spacing" textLength="4" x="141" y="763.6738"> </text><ellipse cx="132" cy="777.0547" fill="#84BE84" rx="3" ry="3" style="stroke:#038048;stroke-width:1.0;"/><text fill="#000000" font-family="sans-serif" font-size="14" lengthAdjust="spacing" textLength="473" x="141" y="781.2832">UpdateAsync([Required] searchClause : Expression&lt;Func&lt;TEntity, bool&gt;&gt;,</text><text fill="#000000" font-family="sans-serif" font-size="14" lengthAdjust="spacing" textLength="352" x="141" y="798.8926">cancellationToken : CancellationToken = default) : Task</text><text fill="#000000" font-family="sans-serif" font-size="14" lengthAdjust="spacing" textLength="4" x="141" y="816.502"> </text><ellipse cx="132" cy="829.8828" fill="#84BE84" rx="3" ry="3" style="stroke:#038048;stroke-width:1.0;"/><text fill="#000000" font-family="sans-serif" font-size="14" lengthAdjust="spacing" textLength="469" x="141" y="834.1113">DeleteAsync([Required] searchClause : Expression&lt;Func&lt;TEntity, bool&gt;&gt;,</text><text fill="#000000" font-family="sans-serif" font-size="14" lengthAdjust="spacing" textLength="352" x="141" y="851.7207">cancellationToken : CancellationToken = default) : Task</text></g><!--MD5=[b3e0f8dcddb1b27f071a0303a68762bf]
class IGenericRepository--><g id="elem_IGenericRepository"><rect codeLine="53" fill="#F1F1F1" height="294.5313" id="IGenericRepository" rx="2.5" ry="2.5" style="stroke:#181818;stroke-width:0.5;" width="788" x="46" y="86"/><ellipse cx="354.25" cy="102" fill="#B4A7E5" rx="11" ry="11" style="stroke:#181818;stroke-width:1.0;"/><path d="M355.2031,98.6406 L355.2031,105.2969 L356.9219,105.2969 Q357.5313,105.2969 357.7969,105.5313 Q358.0625,105.7656 358.0625,106.1563 Q358.0625,106.5313 357.7969,106.7656 Q357.5313,107 356.9219,107 L351.7813,107 Q351.1719,107 350.9063,106.7656 Q350.6406,106.5313 350.6406,106.1406 Q350.6406,105.7656 350.9063,105.5313 Q351.1719,105.2969 351.7813,105.2969 L353.5,105.2969 L353.5,98.6406 L351.7813,98.6406 Q351.1719,98.6406 350.9063,98.4063 Q350.6406,98.1719 350.6406,97.7813 Q350.6406,97.4063 350.9063,97.1719 Q351.1719,96.9375 351.7813,96.9375 L356.9219,96.9375 Q357.5313,96.9375 357.7969,97.1719 Q358.0625,97.4063 358.0625,97.7813 Q358.0625,98.1719 357.7969,98.4063 Q357.5313,98.6406 356.9219,98.6406 L355.2031,98.6406 Z " fill="#000000"/><text fill="#000000" font-family="sans-serif" font-size="14" font-style="italic" lengthAdjust="spacing" textLength="122" x="374.75" y="107.7285">IGenericRepository</text><rect fill="#FFFFFF" height="17.0938" style="stroke:#181818;stroke-width:1.0;stroke-dasharray:2.0,2.0;" width="39" x="798" y="83"/><text fill="#000000" font-family="sans-serif" font-size="12" font-style="italic" lengthAdjust="spacing" textLength="37" x="799" y="96.457">TEntity</text><line style="stroke:#181818;stroke-width:0.5;" x1="47" x2="833" y1="118" y2="118"/><line style="stroke:#181818;stroke-width:0.5;" x1="47" x2="833" y1="126" y2="126"/><ellipse cx="57" cy="140.3047" fill="#84BE84" rx="3" ry="3" style="stroke:#038048;stroke-width:1.0;"/><text fill="#000000" font-family="sans-serif" font-size="14" lengthAdjust="spacing" textLength="488" x="66" y="144.5332">List([Required] options : DataModelOptions&lt;TEntity&gt;) : IEnumerable&lt;TEntity&gt;</text><text fill="#000000" font-family="sans-serif" font-size="14" lengthAdjust="spacing" textLength="4" x="66" y="162.1426"> </text><ellipse cx="57" cy="175.5234" fill="#84BE84" rx="3" ry="3" style="stroke:#038048;stroke-width:1.0;"/><text fill="#000000" font-family="sans-serif" font-size="14" lengthAdjust="spacing" textLength="762" x="66" y="179.752">List&lt;TDestination&gt;([Required] options : ComplexDataModelOptions&lt;TEntity, TDestination&gt;) : IEnumerable&lt;TDestination&gt;</text><text fill="#000000" font-family="sans-serif" font-size="14" lengthAdjust="spacing" textLength="4" x="66" y="197.3613"> </text><ellipse cx="57" cy="210.7422" fill="#84BE84" rx="3" ry="3" style="stroke:#038048;stroke-width:1.0;"/><text fill="#000000" font-family="sans-serif" font-size="14" lengthAdjust="spacing" textLength="394" x="66" y="214.9707">Get([Required] options : DataModelOptions&lt;TEntity&gt;) : TEntity</text><text fill="#000000" font-family="sans-serif" font-size="14" lengthAdjust="spacing" textLength="4" x="66" y="232.5801"> </text><ellipse cx="57" cy="245.9609" fill="#84BE84" rx="3" ry="3" style="stroke:#038048;stroke-width:1.0;"/><text fill="#000000" font-family="sans-serif" font-size="14" lengthAdjust="spacing" textLength="668" x="66" y="250.1895">Get&lt;TDestination&gt;([Required] options : ComplexDataModelOptions&lt;TEntity, TDestination&gt;) : TDestination</text><text fill="#000000" font-family="sans-serif" font-size="14" lengthAdjust="spacing" textLength="4" x="66" y="267.7988"> </text><ellipse cx="57" cy="281.1797" fill="#84BE84" rx="3" ry="3" style="stroke:#038048;stroke-width:1.0;"/><text fill="#000000" font-family="sans-serif" font-size="14" lengthAdjust="spacing" textLength="251" x="66" y="285.4082">Create([Required] entity : TEntity) : void</text><text fill="#000000" font-family="sans-serif" font-size="14" lengthAdjust="spacing" textLength="4" x="66" y="303.0176"> </text><ellipse cx="57" cy="316.3984" fill="#84BE84" rx="3" ry="3" style="stroke:#038048;stroke-width:1.0;"/><text fill="#000000" font-family="sans-serif" font-size="14" lengthAdjust="spacing" textLength="435" x="66" y="320.627">Update([Required] searchClause : Expression&lt;Func&lt;TEntity, bool&gt;&gt;,</text><text fill="#000000" font-family="sans-serif" font-size="14" lengthAdjust="spacing" textLength="203" x="66" y="338.2363">[Required] entity : TEntity) : void</text><text fill="#000000" font-family="sans-serif" font-size="14" lengthAdjust="spacing" textLength="4" x="66" y="355.8457"> </text><ellipse cx="57" cy="369.2266" fill="#84BE84" rx="3" ry="3" style="stroke:#038048;stroke-width:1.0;"/><text fill="#000000" font-family="sans-serif" font-size="14" lengthAdjust="spacing" textLength="470" x="66" y="373.4551">Delete([Required] searchClause : Expression&lt;Func&lt;TEntity, bool&gt;&gt;) : void</text></g><!--MD5=[f1922081357ba6ad888e67b70cb438f4]
reverse link DataModelOptions to ComplexDataModelOptions--><g id="link_DataModelOptions_ComplexDataModelOptions"><path codeLine="25" d="M1133,738.54 C1133,796.62 1133,870.76 1133,918.91 " fill="none" id="DataModelOptions-backto-ComplexDataModelOptions" style="stroke:#181818;stroke-width:1.0;"/><polygon fill="none" points="1126,738.33,1133,718.33,1140,738.33,1126,738.33" style="stroke:#181818;stroke-width:1.0;"/></g><!--MD5=[7dfd1b9a285464300ac3e1812639608e]
link IGenericRepository to IGenericAsyncRepository--><!--MD5=[ae9b360272a2cef49ccb45df2b458446]
link Enums to Options--><!--MD5=[ce4c5bed95ad5b66dadb552b712914b7]
@startuml GenericRepositoryContracts

package GenericRepository {
    package Enums {
        enum SortingOrder {
            Asc
            Desc
        }
    }

    package Options {
        class DataModelOptions<TEntity> {
            + EntitySearchClause : Expression<Func<TEntity, bool>> = null
        
            + SortingFieldName : string = null

            + SortingOrder : SortingOrder
        }

        class ComplexDataModelOptions<TEntity, TDestination> {
            + [Required] Projection : Expression<Func<TEntity, TDestination>>

            + ProjectionSearchClause : Expression<Func<TDestination, bool>>
        }

         ComplexDataModelOptions -up-|> DataModelOptions
    }

    package Interfaces {
        interface IGenericAsyncRepository<TEntity> {
            + ListAsync([Required] options : DataModelOptions<TEntity>, 
            cancellationToken : CancellationToken = default) : Task<IEnumerable<TEntity>>

            + ListAsync<TDestination>([Required] options : ComplexDataModelOptions<TEntity, TDestination>,
            cancellationToken : CancellationToken = default) : Task<IEnumerable<TDestination>>
        
            + GetAsync([Required] options : DataModelOptions<TEntity>,
            cancellationToken : CancellationToken = default) : Task<TEntity>
        
            + GetAsync<TDestination>([Required] ComplexDataModelOptions<TEntity, TDestination> options,
            cancellationToken : CancellationToken = default) : Task<TDestination>

            + CreateAsync([Required] entity : TEntity, 
            cancellationToken : CancellationToken = default) : Task

            + UpdateAsync([Required] searchClause : Expression<Func<TEntity, bool>>, 
            [Required] entity : TEntity, 
            cancellationToken : CancellationToken = default) : Task

            + DeleteAsync([Required] searchClause : Expression<Func<TEntity, bool>>,
            cancellationToken : CancellationToken = default) : Task
        }

        interface IGenericRepository<TEntity> {
            + List([Required] options : DataModelOptions<TEntity>) : IEnumerable<TEntity>
        
            + List<TDestination>([Required] options : ComplexDataModelOptions<TEntity, TDestination>) : IEnumerable<TDestination>

            + Get([Required] options : DataModelOptions<TEntity>) : TEntity

            + Get<TDestination>([Required] options : ComplexDataModelOptions<TEntity, TDestination>) : TDestination

            + Create([Required] entity : TEntity) : void

            + Update([Required] searchClause : Expression<Func<TEntity, bool>>, 
            [Required] entity : TEntity) : void

            + Delete([Required] searchClause : Expression<Func<TEntity, bool>>) : void
        }

        IGenericRepository -[hidden]-> IGenericAsyncRepository
    }

    Enums -[hidden]-> Options
}

@enduml

PlantUML version 1.2022.7(Mon Aug 22 20:01:30 EEST 2022)
(GPL source distribution)
Java Runtime: Java(TM) SE Runtime Environment
JVM: Java HotSpot(TM) 64-Bit Server VM
Default Encoding: UTF-8
Language: en
Country: US
--></g></svg>